<?xml version="1.0" encoding="UTF-8"?>
<svg viewBox="168.92 88.06 490.15 412.62" preserveAspectRatio="xMidYMid meet" role="img" aria-label="Grypho Basket Perugia" xmlns="http://www.w3.org/2000/svg" xmlns:xlink="http://www.w3.org/1999/xlink" xmlns:c2pa="http://c2pa.org/manifest"><metadata><c2pa:manifest>AAAWgmp1bWIAAAAeanVtZGMycGEAEQAQgAAAqgA4m3EDYzJwYQAAABZcanVtYgAAAEdqdW1kYzJtYQARABCAAACqADibcQN1cm46YzJwYTphODMwNGUwYi04MmFlLTQzMDEtODMwMS0xNDkxYzJkN2Q0OGEAAAADl2p1bWIAAAApanVtZGMyYXMAEQAQgAAAqgA4m3EDYzJwYS5hc3NlcnRpb25zAAAAALxqdW1iAAAARGp1bWRjYm9yABEAEIAAAKoAOJtxE2MycGEuaW5ncmVkaWVudC52MwAAAAAYYzJzaAkKYcviGL445QlXA1nibbEAAABwY2JvcqNpZGM6Zm9ybWF0bWltYWdlL3N2Zyt4bWxqaW5zdGFuY2VJRHgseG1wOmlpZDozYjAwNjhkYS00ZTRiLTQzZTktYTcxYS05Njg0NzliOWExYTdscmVsYXRpb25zaGlwaHBhcmVudE9mAAAB4mp1bWIAAABBanVtZGNib3IAEQAQgAAAqgA4m3ETYzJwYS5hY3Rpb25zLnYyAAAAABhjMnNoTSIapxmAKDgXDdUUtseOBQAAAZljYm9yomdhY3Rpb25zgqJmYWN0aW9ua2MycGEub3BlbmVkanBhcmFtZXRlcnOha2luZ3JlZGllbnRzgaJjdXJseC1zZWxmI2p1bWJmPWMycGEuYXNzZXJ0aW9ucy9jMnBhLmluZ3JlZGllbnQudjNkaGFzaFggqyTx5iMXQOrJjn45N272fSUnNFGoXEsuO6hN8iOXxJWkZmFjdGlvbngdY29tLmFudGhyb3BpYy5jbGF1ZGUucHJvdmlkZWRqcGFyYW1ldGVyc6F4H2NvbS5hbnRocm9waWMub3JpZ2luLWNvbmZpZGVuY2VndW5rbm93bmtkZXNjcmlwdGlvbnhmQ2xhdWRlIHByb3ZpZGVkIHRoaXMgZmlsZSBhdCB0aGUgcmVxdWVzdCBvZiBhIHVzZXIgYW5kIG1heSBoYXZlIGNyZWF0ZWQgb3IgbW9kaWZpZWQgdGhlIGZpbGUgY29udGVudHMubXNvZnR3YXJlQWdlbnShZG5hbWVmQ2xhdWRlcmFsbEFjdGlvbnNJbmNsdWRlZPUAAADIanVtYgAAAEBqdW1kY2JvcgARABCAAACqADibcRNjMnBhLmhhc2guZGF0YQAAAAAYYzJzaIJBRA0x0KMjKctV0DFBxykAAACAY2JvcqVjYWxnZnNoYTI1NmNwYWRMAAAAAAAAAAAAAAAAZGhhc2hYII7XE2/l/upMG0jwM340f3yOKsOaqOS4uq3pxTpyYCX4ZG5hbWVuanVtYmYgbWFuaWZlc3RqZXhjbHVzaW9uc4GiZXN0YXJ0GQEwZmxlbmd0aBkeBAAAAj5qdW1iAAAAJ2p1bWRjMmNsABEAEIAAAKoAOJtxA2MycGEuY2xhaW0udjIAAAACD2Nib3KlY2FsZ2ZzaGEyNTZpc2lnbmF0dXJleE1zZWxmI2p1bWJmPS9jMnBhL3VybjpjMnBhOmE4MzA0ZTBiLTgyYWUtNDMwMS04MzAxLTE0OTFjMmQ3ZDQ4YS9jMnBhLnNpZ25hdHVyZWppbnN0YW5jZUlEeCx4bXA6aWlkOjBiNTYyNGM4LTYzNjQtNDczMS04NzljLTNjNDdjYTQyNjAyYXJjcmVhdGVkX2Fzc2VydGlvbnODomN1cmx4LXNlbGYjanVtYmY9YzJwYS5hc3NlcnRpb25zL2MycGEuaW5ncmVkaWVudC52M2RoYXNoWCCrJPHmIxdA6smOfjk3bvZ9JSc0UahcSy47qE3yI5fElaJjdXJseCpzZWxmI2p1bWJmPWMycGEuYXNzZXJ0aW9ucy9jMnBhLmFjdGlvbnMudjJkaGFzaFggueJTbySVu5gRXoCcaMDx8yohz/CfngtjSJK9usqYILOiY3VybHgpc2VsZiNqdW1iZj1jMnBhLmFzc2VydGlvbnMvYzJwYS5oYXNoLmRhdGFkaGFzaFgg3Y8SGv9VAQ+s87oW4U41U7RCuqYCJ8x+LrXYVL/oneV0Y2xhaW1fZ2VuZXJhdG9yX2luZm+jZG5hbWVvQW50aHJvcGljIEZpbGVzZ3ZlcnNpb25lMS4wLjBrc3BlY1ZlcnNpb25lMi40LjAAABA4anVtYgAAAChqdW1kYzJjcwARABCAAACqADibcQNjMnBhLnNpZ25hdHVyZQAAABAIY2JvctKEWQISogEmGCFZAgowggIGMIIBjaADAgECAhRA5aAK7sI50L64g/oGQgU9Z1UTADAKBggqhkjOPQQDAzBJMRcwFQYDVQQKEw5BbnRocm9waWMsIFBCQzEuMCwGA1UEAxMlQW50aHJvcGljIENvbnRlbnQgQ3JlZGVudGlhbHMgUm9vdCBDQTAeFw0yNjA4MDcxODQzNTZaFw0yODA4MDYxOTQzNTZaMEQxFzAVBgNVBAoTDkFudGhyb3BpYywgUEJDMSkwJwYDVQQDEyBBbnRocm9waWMgQ2xhdWRlIENvbnRlbnQgU2lnbmluZzBZMBMGByqGSM49AgEGCCqGSM49AwEHA0IABJh6CmvLUBgFFNU0vUKlOVtE6djd17L5SuwX0LemFisBM3dkd/3cyjxFA3Qo5S46fX0/ihY0VZ7mfb9KF703t5OjWDBWMA4GA1UdDwEB/wQEAwIHgDAVBgNVHSUEDjAMBgorBgEEAYPoXgIBMAwGA1UdEwEB/wQCMAAwHwYDVR0jBBgwFoAUzlHiBIFOZFsj+OPEz5o+nMHXXMIwCgYIKoZIzj0EAwMDZwAwZAIwMXMdFJ4BetLLVY7ORuE9noqbbAZOZn/aArXyTwFAZfKrPzxF2vPoJNf1+UCdg1XGAjBwX1zd9WGqYkqmL5SFqw1QySjr1zJfpJM9+1rdDwSPLMOPOjKuiXjoU/pUUeG9RwmhY3BhZFkNngAAAAAAAAAAAAAAAAAAAAAAAAAAAAAAAAAAAAAAAAAAAAAAAAAAAAAAAAAAAAAAAAAAAAAAAAAAAAAAAAAAAAAAAAAAAAAAAAAAAAAAAAAAAAAAAAAAAAAAAAAAAAAAAAAAAAAAAAAAAAAAAAAAAAAAAAAAAAAAAAAAAAAAAAAAAAAAAAAAAAAAAAAAAAAAAAAAAAAAAAAAAAAAAAAAAAAAAAAAAAAAAAAAAAAAAAAAAAAAAAAAAAAAAAAAAAAAAAAAAAAAAAAAAAAAAAAAAAAAAAAAAAAAAAAAAAAAAAAAAAAAAAAAAAAAAAAAAAAAAAAAAAAAAAAAAAAAAAAAAAAAAAAAAAAAAAAAAAAAAAAAAAAAAAAAAAAAAAAAAAAAAAAAAAAAAAAAAAAAAAAAAAAAAAAAAAAAAAAAAAAAAAAAAAAAAAAAAAAAAAAAAAAAAAAAAAAAAAAAAAAAAAAAAAAAAAAAAAAAAAAAAAAAAAAAAAAAAAAAAAAAAAAAAAAAAAAAAAAAAAAAAAAAAAAAAAAAAAAAAAAAAAAAAAAAAAAAAAAAAAAAAAAAAAAAAAAAAAAAAAAAAAAAAAAAAAAAAAAAAAAAAAAAAAAAAAAAAAAAAAAAAAAAAAAAAAAAAAAAAAAAAAAAAAAAAAAAAAAAAAAAAAAAAAAAAAAAAAAAAAAAAAAAAAAAAAAAAAAAAAAAAAAAAAAAAAAAAAAAAAAAAAAAAAAAAAAAAAAAAAAAAAAAAAAAAAAAAAAAAAAAAAAAAAAAAAAAAAAAAAAAAAAAAAAAAAAAAAAAAAAAAAAAAAAAAAAAAAAAAAAAAAAAAAAAAAAAAAAAAAAAAAAAAAAAAAAAAAAAAAAAAAAAAAAAAAAAAAAAAAAAAAAAAAAAAAAAAAAAAAAAAAAAAAAAAAAAAAAAAAAAAAAAAAAAAAAAAAAAAAAAAAAAAAAAAAAAAAAAAAAAAAAAAAAAAAAAAAAAAAAAAAAAAAAAAAAAAAAAAAAAAAAAAAAAAAAAAAAAAAAAAAAAAAAAAAAAAAAAAAAAAAAAAAAAAAAAAAAAAAAAAAAAAAAAAAAAAAAAAAAAAAAAAAAAAAAAAAAAAAAAAAAAAAAAAAAAAAAAAAAAAAAAAAAAAAAAAAAAAAAAAAAAAAAAAAAAAAAAAAAAAAAAAAAAAAAAAAAAAAAAAAAAAAAAAAAAAAAAAAAAAAAAAAAAAAAAAAAAAAAAAAAAAAAAAAAAAAAAAAAAAAAAAAAAAAAAAAAAAAAAAAAAAAAAAAAAAAAAAAAAAAAAAAAAAAAAAAAAAAAAAAAAAAAAAAAAAAAAAAAAAAAAAAAAAAAAAAAAAAAAAAAAAAAAAAAAAAAAAAAAAAAAAAAAAAAAAAAAAAAAAAAAAAAAAAAAAAAAAAAAAAAAAAAAAAAAAAAAAAAAAAAAAAAAAAAAAAAAAAAAAAAAAAAAAAAAAAAAAAAAAAAAAAAAAAAAAAAAAAAAAAAAAAAAAAAAAAAAAAAAAAAAAAAAAAAAAAAAAAAAAAAAAAAAAAAAAAAAAAAAAAAAAAAAAAAAAAAAAAAAAAAAAAAAAAAAAAAAAAAAAAAAAAAAAAAAAAAAAAAAAAAAAAAAAAAAAAAAAAAAAAAAAAAAAAAAAAAAAAAAAAAAAAAAAAAAAAAAAAAAAAAAAAAAAAAAAAAAAAAAAAAAAAAAAAAAAAAAAAAAAAAAAAAAAAAAAAAAAAAAAAAAAAAAAAAAAAAAAAAAAAAAAAAAAAAAAAAAAAAAAAAAAAAAAAAAAAAAAAAAAAAAAAAAAAAAAAAAAAAAAAAAAAAAAAAAAAAAAAAAAAAAAAAAAAAAAAAAAAAAAAAAAAAAAAAAAAAAAAAAAAAAAAAAAAAAAAAAAAAAAAAAAAAAAAAAAAAAAAAAAAAAAAAAAAAAAAAAAAAAAAAAAAAAAAAAAAAAAAAAAAAAAAAAAAAAAAAAAAAAAAAAAAAAAAAAAAAAAAAAAAAAAAAAAAAAAAAAAAAAAAAAAAAAAAAAAAAAAAAAAAAAAAAAAAAAAAAAAAAAAAAAAAAAAAAAAAAAAAAAAAAAAAAAAAAAAAAAAAAAAAAAAAAAAAAAAAAAAAAAAAAAAAAAAAAAAAAAAAAAAAAAAAAAAAAAAAAAAAAAAAAAAAAAAAAAAAAAAAAAAAAAAAAAAAAAAAAAAAAAAAAAAAAAAAAAAAAAAAAAAAAAAAAAAAAAAAAAAAAAAAAAAAAAAAAAAAAAAAAAAAAAAAAAAAAAAAAAAAAAAAAAAAAAAAAAAAAAAAAAAAAAAAAAAAAAAAAAAAAAAAAAAAAAAAAAAAAAAAAAAAAAAAAAAAAAAAAAAAAAAAAAAAAAAAAAAAAAAAAAAAAAAAAAAAAAAAAAAAAAAAAAAAAAAAAAAAAAAAAAAAAAAAAAAAAAAAAAAAAAAAAAAAAAAAAAAAAAAAAAAAAAAAAAAAAAAAAAAAAAAAAAAAAAAAAAAAAAAAAAAAAAAAAAAAAAAAAAAAAAAAAAAAAAAAAAAAAAAAAAAAAAAAAAAAAAAAAAAAAAAAAAAAAAAAAAAAAAAAAAAAAAAAAAAAAAAAAAAAAAAAAAAAAAAAAAAAAAAAAAAAAAAAAAAAAAAAAAAAAAAAAAAAAAAAAAAAAAAAAAAAAAAAAAAAAAAAAAAAAAAAAAAAAAAAAAAAAAAAAAAAAAAAAAAAAAAAAAAAAAAAAAAAAAAAAAAAAAAAAAAAAAAAAAAAAAAAAAAAAAAAAAAAAAAAAAAAAAAAAAAAAAAAAAAAAAAAAAAAAAAAAAAAAAAAAAAAAAAAAAAAAAAAAAAAAAAAAAAAAAAAAAAAAAAAAAAAAAAAAAAAAAAAAAAAAAAAAAAAAAAAAAAAAAAAAAAAAAAAAAAAAAAAAAAAAAAAAAAAAAAAAAAAAAAAAAAAAAAAAAAAAAAAAAAAAAAAAAAAAAAAAAAAAAAAAAAAAAAAAAAAAAAAAAAAAAAAAAAAAAAAAAAAAAAAAAAAAAAAAAAAAAAAAAAAAAAAAAAAAAAAAAAAAAAAAAAAAAAAAAAAAAAAAAAAAAAAAAAAAAAAAAAAAAAAAAAAAAAAAAAAAAAAAAAAAAAAAAAAAAAAAAAAAAAAAAAAAAAAAAAAAAAAAAAAAAAAAAAAAAAAAAAAAAAAAAAAAAAAAAAAAAAAAAAAAAAAAAAAAAAAAAAAAAAAAAAAAAAAAAAAAAAAAAAAAAAAAAAAAAAAAAAAAAAAAAAAAAAAAAAAAAAAAAAAAAAAAAAAAAAAAAAAAAAAAAAAAAAAAAAAAAAAAAAAAAAAAAAAAAAAAAAAAAAAAAAAAAAAAAAAAAAAAAAAAAAAAAAAAAAAAAAAAAAAAAAAAAAAAAAAAAAAAAAAAAAAAAAAAAAAAAAAAAAAAAAAAAAAAAAAAAAAAAAAAAAAAAAAAAAAAAAAAAAAAAAAAAAAAAAAAAAAAAAAAAAAAAAAAAAAAAAAAAAAAAAAAAAAAAAAAAAAAAAAAAAAAAAAAAAAAAAAAAAAAAAAAAAAAAAAAAAAAAAAAAAAAAAAAAAAAAAAAAAAAAAAAAAAAAAAAAAAAAAAAAAAAAAAAAAAAAAAAAAAAAAAAAAAAAAAAAAAAAAAAAAAAAAAAAAAAAAAAAAAAAAAAAAAAAAAAAAAAAAAAAAAAAAAAAAAAAAAAAAAAAAAAAAAAAAAAAAAAAAAAAAAAAAAAAAAAAAAAAAAAAAAAAAAAAAAAAAAAAAAAAAAAAAAAAAAAAAAAAAAAAAAAAAAAAAAAAAAAAAAAAAAAAAAAAAAAAAAAAAAAAAAAAAAAAAAAAAAAAAAAAAAAAAAAAAAAAAAAAAAAAAAAAAAAAAAAAAAAAAAAAAAAAAAAAAAAAAAAAAAAAAAAAAAAAAAAAAAAAAAAAAAAAAAAAAAAAAAAAAAAAAAAAAAAAAAAAAAAAAAAAAAAAAAAAAAAAAAAAAAAAAAAAAAAAAAAAAAAAAAAAAAAAAAAAAAAAAAAAAAAAAAAAAAAAAAAAAAAAAAAAAAAAAAAAAAAAAAAAAAAAAAAAAAAAAAAAAAAAAAAAAAAAAAAAAAAAAAAAAAAAAAAAAAAAAAAAAAAAAAAAAAAAAAAAAAAAAAAAAAAAAAAAAAAAAAAAAAAAAAAAAAAAAAAAAAAAAAAAAAAAAAAAAAAAAAAAAAAAAAAAAAAAAAAAAAAAAAAAAAAAAAAAAAAAAAAAAAAAAAAAAAAAAAAAAAAAAAAAAAAAAAAAAAAAAAAAAAAAAAAAAAAAAAAAAAAAAAAAAAAAAAAAAAAAAAAAAAAAAAAAAAAAAAAAAAAAAAAAAAAAAAAAAAAAAAAAAAAAAAAAAAAAAAAAAAAAAAAAAAAAAAAAAAAAAAAAAAAAAAAAAAAAAAAAAAAAAAAAAAAAAAAAAAAAAAAAAAAAAAAAAAAAAAAAAAAAAAAAAAAAAAAAAAAAAAAAAAAAAAAAAAAAAAAAAAAAAAAAAAAAAAAAAAAAAAAAAAAAAAAAAAAAAAAAAAAAAAAAAAAAAAAAAAAAAAAAAAAAAAAAAAAAAAAAAAAAAAAAAAAAAAAAAAAAAAAAAAAAAAAAAAAAAAAAAAAAAAAAAAAAAAAAAAAAAAAAAAAAAAAAAAAAAAAAAAAAAAAAAAAAAAAAAAAAAAAAAPZYQJLTv2YBcMTvlgdq1VviSxiB5Zg3axoGI10GhdUFKkSFWMvEoBVTjBRCePckek+nP/9f2cRrNzxPOAzthd3mqqQ=</c2pa:manifest></metadata>
<defs>
<g>
<g id="glyph-0-0">
<path d="M 62 -130.375 L 71.34375 -114.1875 L 71.34375 -95.046875 L 51.96875 -95.046875 L 51.96875 -114.1875 L 26.21875 -114.1875 L 26.21875 -16.40625 L 51.96875 -16.40625 L 51.96875 -52.421875 L 38.96875 -52.421875 L 38.96875 -68.609375 L 71.34375 -68.609375 L 71.34375 -16.40625 L 62 -0.234375 L 16.1875 -0.234375 L 6.84375 -16.40625 L 6.84375 -114.1875 L 16.1875 -130.375 Z M 62 -130.375 "></path>
</g>
<g id="glyph-0-1">
<path d="M 75.890625 -19.140625 C 75.890625 -17.015625 76.269531 -15.34375 77.03125 -14.125 C 77.789062 -12.914062 78.703125 -11.929688 79.765625 -11.171875 C 80.984375 -10.410156 82.351562 -9.800781 83.875 -9.34375 L 83.875 -0.234375 L 48.546875 -0.234375 L 48.546875 -9.34375 C 49.910156 -9.800781 51.203125 -10.410156 52.421875 -11.171875 C 53.484375 -11.929688 54.429688 -12.914062 55.265625 -14.125 C 56.109375 -15.34375 56.53125 -17.015625 56.53125 -19.140625 L 56.53125 -49.234375 L 30.765625 -49.234375 L 30.765625 -19.140625 C 30.765625 -17.015625 31.144531 -15.34375 31.90625 -14.125 C 32.664062 -12.914062 33.578125 -11.929688 34.640625 -11.171875 C 35.859375 -10.410156 37.226562 -9.800781 38.75 -9.34375 L 38.75 -0.234375 L 3.421875 -0.234375 L 3.421875 -9.34375 C 4.785156 -9.800781 6.078125 -10.410156 7.296875 -11.171875 C 8.359375 -11.929688 9.304688 -12.914062 10.140625 -14.125 C 10.972656 -15.34375 11.390625 -17.015625 11.390625 -19.140625 L 11.390625 -111.21875 C 11.390625 -113.351562 10.972656 -115.023438 10.140625 -116.234375 C 9.304688 -117.453125 8.359375 -118.441406 7.296875 -119.203125 C 6.078125 -119.960938 4.785156 -120.570312 3.421875 -121.03125 L 3.421875 -130.375 L 66.546875 -130.375 L 75.890625 -114.1875 L 75.890625 -65.1875 L 71.34375 -57.203125 L 75.890625 -49.234375 Z M 56.53125 -114.1875 L 30.765625 -114.1875 L 30.765625 -65.1875 L 56.53125 -65.1875 Z M 56.53125 -114.1875 "></path>
</g>
<g id="glyph-0-2">
<path d="M 86.15625 -130.375 L 86.15625 -121.03125 C 84.632812 -120.570312 83.265625 -119.960938 82.046875 -119.203125 C 80.984375 -118.441406 80.070312 -117.453125 79.3125 -116.234375 C 78.550781 -115.023438 78.171875 -113.351562 78.171875 -111.21875 L 54.46875 -52.421875 L 54.46875 -19.140625 C 54.46875 -17.015625 54.847656 -15.34375 55.609375 -14.125 C 56.367188 -12.914062 57.28125 -11.929688 58.34375 -11.171875 C 59.5625 -10.410156 60.929688 -9.800781 62.453125 -9.34375 L 62.453125 -0.234375 L 27.125 -0.234375 L 27.125 -9.34375 C 28.488281 -9.800781 29.78125 -10.410156 31 -11.171875 C 32.0625 -11.929688 33.007812 -12.914062 33.84375 -14.125 C 34.675781 -15.34375 35.09375 -17.015625 35.09375 -19.140625 L 35.09375 -52.421875 L 11.390625 -111.21875 C 11.390625 -113.351562 10.972656 -115.023438 10.140625 -116.234375 C 9.304688 -117.453125 8.359375 -118.441406 7.296875 -119.203125 C 6.078125 -119.960938 4.785156 -120.570312 3.421875 -121.03125 L 3.421875 -130.375 L 38.75 -130.375 L 38.75 -121.03125 C 37.226562 -120.570312 35.859375 -119.960938 34.640625 -119.203125 C 33.578125 -118.441406 32.664062 -117.453125 31.90625 -116.234375 C 31.144531 -115.023438 30.765625 -113.351562 30.765625 -111.21875 L 44.90625 -76.578125 L 58.796875 -111.21875 C 58.796875 -113.351562 58.378906 -115.023438 57.546875 -116.234375 C 56.710938 -117.453125 55.765625 -118.441406 54.703125 -119.203125 C 53.484375 -119.960938 52.191406 -120.570312 50.828125 -121.03125 L 50.828125 -130.375 Z M 86.15625 -130.375 "></path>
</g>
<g id="glyph-0-3">
<path d="M 66.546875 -130.375 L 75.890625 -114.1875 L 75.890625 -65.1875 L 66.546875 -49.234375 L 30.765625 -49 L 30.765625 -19.140625 C 30.765625 -17.015625 31.144531 -15.34375 31.90625 -14.125 C 32.664062 -12.914062 33.578125 -11.929688 34.640625 -11.171875 C 35.859375 -10.410156 37.226562 -9.800781 38.75 -9.34375 L 38.75 -0.234375 L 3.421875 -0.234375 L 3.421875 -9.34375 C 4.785156 -9.800781 6.078125 -10.410156 7.296875 -11.171875 C 8.359375 -11.929688 9.304688 -12.914062 10.140625 -14.125 C 10.972656 -15.34375 11.390625 -17.015625 11.390625 -19.140625 L 11.390625 -111.21875 C 11.390625 -113.351562 10.972656 -115.023438 10.140625 -116.234375 C 9.304688 -117.453125 8.359375 -118.441406 7.296875 -119.203125 C 6.078125 -119.960938 4.785156 -120.570312 3.421875 -121.03125 L 3.421875 -130.375 Z M 56.53125 -114.1875 L 30.765625 -114.1875 L 30.765625 -65.1875 L 56.53125 -65.1875 Z M 56.53125 -114.1875 "></path>
</g>
<g id="glyph-0-4">
<path d="M 48.546875 -130.375 L 83.875 -130.375 L 83.875 -121.03125 C 82.351562 -120.570312 80.984375 -119.960938 79.765625 -119.203125 C 78.703125 -118.441406 77.789062 -117.453125 77.03125 -116.234375 C 76.269531 -115.023438 75.890625 -113.351562 75.890625 -111.21875 L 75.890625 -19.140625 C 75.890625 -17.015625 76.269531 -15.34375 77.03125 -14.125 C 77.789062 -12.914062 78.703125 -11.929688 79.765625 -11.171875 C 80.984375 -10.410156 82.351562 -9.800781 83.875 -9.34375 L 83.875 -0.234375 L 48.546875 -0.234375 L 48.546875 -9.34375 C 49.910156 -9.800781 51.203125 -10.410156 52.421875 -11.171875 C 53.484375 -11.929688 54.429688 -12.914062 55.265625 -14.125 C 56.109375 -15.34375 56.53125 -17.015625 56.53125 -19.140625 L 56.53125 -57.203125 L 30.765625 -57.203125 L 30.765625 -19.140625 C 30.765625 -17.015625 31.144531 -15.34375 31.90625 -14.125 C 32.664062 -12.914062 33.578125 -11.929688 34.640625 -11.171875 C 35.859375 -10.410156 37.226562 -9.800781 38.75 -9.34375 L 38.75 -0.234375 L 3.421875 -0.234375 L 3.421875 -9.34375 C 4.785156 -9.800781 6.078125 -10.410156 7.296875 -11.171875 C 8.359375 -11.929688 9.304688 -12.914062 10.140625 -14.125 C 10.972656 -15.34375 11.390625 -17.015625 11.390625 -19.140625 L 11.390625 -111.21875 C 11.390625 -113.351562 10.972656 -115.023438 10.140625 -116.234375 C 9.304688 -117.453125 8.359375 -118.441406 7.296875 -119.203125 C 6.078125 -119.960938 4.785156 -120.570312 3.421875 -121.03125 L 3.421875 -130.375 L 38.75 -130.375 L 38.75 -121.03125 C 37.226562 -120.570312 35.859375 -119.960938 34.640625 -119.203125 C 33.578125 -118.441406 32.664062 -117.453125 31.90625 -116.234375 C 31.144531 -115.023438 30.765625 -113.351562 30.765625 -111.21875 L 30.765625 -73.390625 L 56.53125 -73.390625 L 56.53125 -111.21875 C 56.53125 -113.351562 56.109375 -115.023438 55.265625 -116.234375 C 54.429688 -117.453125 53.484375 -118.441406 52.421875 -119.203125 C 51.203125 -119.960938 49.910156 -120.570312 48.546875 -121.03125 Z M 48.546875 -130.375 "></path>
</g>
<g id="glyph-0-5">
<path d="M 62 -130.375 L 71.34375 -114.1875 L 71.34375 -16.40625 L 62 -0.234375 L 16.1875 -0.234375 L 6.84375 -16.40625 L 6.84375 -114.1875 L 16.1875 -130.375 Z M 51.96875 -114.1875 L 26.21875 -114.1875 L 26.21875 -16.40625 L 51.96875 -16.40625 Z M 51.96875 -114.1875 "></path>
</g>
<g id="glyph-1-0">
<path d="M 1.265625 0 L 1.265625 -14.234375 L 9.71875 -14.234375 L 11.8125 -12.140625 L 11.8125 -6.53125 L 9.53125 -4.25 L 4.140625 -4.25 L 4.140625 0 Z M 2.703125 -1.4375 L 2.6875 -1.4375 L 2.6875 -5.75 L 8.90625 -5.75 L 10.453125 -7.28125 L 10.453125 -11.4375 L 9.09375 -12.796875 L 2.703125 -12.796875 Z M 4.140625 -7.125 L 8.125 -7.125 L 8.9375 -7.9375 L 8.9375 -10.734375 L 8.328125 -11.359375 L 4.140625 -11.359375 Z M 2.6875 -5.75 L 2.6875 -12.796875 L 9.09375 -12.796875 L 10.453125 -11.4375 L 10.453125 -7.28125 L 8.90625 -5.75 Z M 2.6875 -5.75 "></path>
</g>
<g id="glyph-1-1">
<path d="M 1.171875 0 L 1.171875 -14.234375 L 10.421875 -14.234375 L 10.421875 -11.359375 L 4.046875 -11.359375 L 4.046875 -8.625 L 9.71875 -8.625 L 9.71875 -5.75 L 4.046875 -5.75 L 4.046875 -2.875 L 10.421875 -2.875 L 10.421875 0 Z M 2.640625 -1.4375 L 9.09375 -1.4375 L 2.640625 -1.4375 L 2.640625 -7.1875 L 8.390625 -7.1875 L 2.640625 -7.1875 L 2.640625 -12.796875 L 9.09375 -12.796875 L 2.640625 -12.796875 Z M 2.640625 -1.4375 "></path>
</g>
<g id="glyph-1-2">
<path d="M 1.265625 0 L 1.265625 -14.234375 L 10.046875 -14.234375 L 12.140625 -12.140625 L 12.140625 -7.71875 L 10.890625 -6.59375 L 12.140625 -5.234375 L 12.140625 0 L 9.265625 0 L 9.265625 -4.21875 L 8.25 -5.234375 L 4.140625 -5.234375 L 4.140625 0 Z M 2.71875 -1.4375 L 2.71875 -6.734375 L 8.9375 -6.734375 L 10.71875 -4.734375 L 10.71875 -1.4375 L 10.71875 -4.734375 L 8.9375 -6.734375 L 10.640625 -8.28125 L 10.640625 -11.5 L 9.328125 -12.796875 L 2.71875 -12.796875 Z M 4.140625 -8.109375 L 8.640625 -8.109375 L 9.265625 -8.734375 L 9.265625 -10.734375 L 8.640625 -11.359375 L 4.140625 -11.359375 Z M 2.71875 -6.734375 L 2.71875 -12.8125 L 9.328125 -12.8125 L 10.65625 -11.5 L 10.65625 -8.28125 L 8.9375 -6.734375 Z M 2.71875 -6.734375 "></path>
</g>
<g id="glyph-1-3">
<path d="M 3.265625 0 L 1.171875 -2.09375 L 1.171875 -14.234375 L 4.046875 -14.234375 L 4.046875 -3.5 L 4.671875 -2.875 L 8.828125 -2.875 L 9.453125 -3.5 L 9.453125 -14.234375 L 12.328125 -14.234375 L 12.328125 -2.09375 L 10.234375 0 Z M 3.96875 -1.4375 L 9.53125 -1.4375 L 10.890625 -2.75 L 10.890625 -12.796875 L 10.890625 -2.75 L 9.53125 -1.4375 L 3.96875 -1.4375 L 2.609375 -2.78125 L 2.609375 -12.796875 L 2.609375 -2.78125 Z M 3.96875 -1.4375 "></path>
</g>
<g id="glyph-1-4">
<path d="M 3.265625 0 L 1.171875 -2.09375 L 1.171875 -12.140625 L 3.265625 -14.234375 L 9.734375 -14.234375 L 11.828125 -12.140625 L 11.828125 -9.578125 L 8.953125 -9.578125 L 8.953125 -10.734375 L 8.328125 -11.359375 L 4.640625 -11.359375 L 4.03125 -10.71875 L 4.03125 -3.484375 L 4.640625 -2.875 L 8.328125 -2.875 L 8.953125 -3.5 L 8.953125 -4.90625 L 6.140625 -4.90625 L 6.140625 -7.765625 L 11.828125 -7.765625 L 11.828125 -2.09375 L 9.734375 0 Z M 4.03125 -1.4375 L 8.96875 -1.4375 L 10.390625 -2.859375 L 10.390625 -6.296875 L 7.65625 -6.296875 L 10.390625 -6.296875 L 10.390625 -2.859375 L 8.96875 -1.4375 L 4.03125 -1.4375 L 2.609375 -2.859375 L 2.609375 -11.4375 L 3.96875 -12.796875 L 9.0625 -12.796875 L 10.390625 -11.4375 L 10.390625 -10.890625 L 10.390625 -11.4375 L 9.0625 -12.796875 L 3.96875 -12.796875 L 2.609375 -11.4375 L 2.609375 -2.859375 Z M 4.03125 -1.4375 "></path>
</g>
<g id="glyph-1-5">
<path d="M 1.171875 0 L 1.171875 -2.875 L 3.953125 -2.875 L 3.953125 -11.359375 L 1.171875 -11.359375 L 1.171875 -14.234375 L 9.59375 -14.234375 L 9.59375 -11.359375 L 6.8125 -11.359375 L 6.8125 -2.875 L 9.59375 -2.875 L 9.59375 0 Z M 2.453125 -1.4375 L 8.328125 -1.4375 L 5.390625 -1.4375 L 5.390625 -12.796875 L 8.328125 -12.796875 L 2.453125 -12.796875 L 5.390625 -12.796875 L 5.390625 -1.4375 Z M 2.453125 -1.4375 "></path>
</g>
<g id="glyph-1-6">
<path d="M 1.171875 0 L 1.171875 -12.140625 L 3.265625 -14.234375 L 9.828125 -14.234375 L 11.921875 -12.140625 L 11.921875 0 L 9.0625 0 L 9.0625 -4.1875 L 4.03125 -4.1875 L 4.03125 0 Z M 2.609375 -1.4375 L 2.59375 -1.4375 L 2.59375 -5.578125 L 10.546875 -5.578125 L 10.546875 -1.4375 L 10.53125 -1.4375 L 10.53125 -11.53125 L 9.265625 -12.796875 L 3.875 -12.796875 L 2.609375 -11.53125 Z M 4.03125 -7.046875 L 9.0625 -7.046875 L 9.0625 -10.734375 L 8.4375 -11.359375 L 4.65625 -11.359375 L 4.03125 -10.734375 Z M 2.59375 -5.5625 L 2.59375 -11.53125 L 3.875 -12.8125 L 9.265625 -12.8125 L 10.546875 -11.53125 L 10.546875 -5.5625 Z M 2.59375 -5.5625 "></path>
</g>
<g id="glyph-1-7">
<path d="M 1.265625 0 L 1.265625 -14.234375 L 9.21875 -14.234375 L 11.3125 -12.140625 L 11.3125 -8.5 L 10.40625 -7.609375 L 11.765625 -6.234375 L 11.765625 -2.09375 L 9.671875 0 Z M 2.734375 -1.40625 L 8.8125 -1.40625 L 10.3125 -2.90625 L 10.3125 -5.65625 L 8.734375 -7.234375 L 8.046875 -7.234375 L 9.875 -9.296875 L 9.875 -11.375 L 8.5625 -12.84375 L 2.734375 -12.84375 Z M 2.734375 -1.40625 L 2.734375 -7.234375 L 8.734375 -7.234375 L 10.3125 -5.65625 L 10.3125 -2.90625 L 8.8125 -1.40625 Z M 2.734375 -7.234375 L 2.734375 -12.84375 L 8.5625 -12.84375 L 9.875 -11.375 L 9.875 -9.296875 L 8.046875 -7.234375 Z M 4.140625 -2.875 L 8.28125 -2.875 L 8.890625 -3.5 L 8.890625 -4.921875 L 8 -5.828125 L 4.140625 -5.828125 Z M 4.140625 -8.703125 L 7.4375 -8.703125 L 8.453125 -9.703125 L 8.453125 -10.734375 L 7.828125 -11.359375 L 4.140625 -11.359375 Z M 4.140625 -8.703125 "></path>
</g>
<g id="glyph-1-8">
<path d="M 3.265625 0 L 1.171875 -2.09375 L 1.171875 -4.65625 L 4.046875 -4.65625 L 4.046875 -3.5 L 4.671875 -2.875 L 8.5625 -2.875 L 9.1875 -3.5 L 9.1875 -5.0625 L 8.5625 -5.6875 L 3.328125 -5.6875 L 1.234375 -7.78125 L 1.234375 -12.140625 L 3.328125 -14.234375 L 9.78125 -14.234375 L 11.875 -12.140625 L 11.875 -9.578125 L 9 -9.578125 L 9 -10.734375 L 8.375 -11.359375 L 4.71875 -11.359375 L 4.09375 -10.734375 L 4.09375 -9.171875 L 4.71875 -8.5625 L 9.96875 -8.5625 L 12.0625 -6.46875 L 12.0625 -2.09375 L 9.96875 0 Z M 3.9375 -1.4375 L 9.109375 -1.4375 L 10.578125 -2.84375 L 10.578125 -5.890625 L 9.40625 -7.109375 L 4.109375 -7.109375 L 2.6875 -8.59375 L 2.6875 -11.46875 L 4.078125 -12.796875 L 9.140625 -12.796875 L 10.421875 -11.46875 L 10.421875 -10.890625 L 10.421875 -11.46875 L 9.140625 -12.796875 L 4.078125 -12.796875 L 2.6875 -11.46875 L 2.6875 -8.59375 L 4.109375 -7.109375 L 9.40625 -7.109375 L 10.578125 -5.890625 L 10.578125 -2.84375 L 9.109375 -1.4375 L 3.9375 -1.4375 L 2.671875 -2.640625 L 2.671875 -3.328125 L 2.671875 -2.640625 Z M 3.9375 -1.4375 "></path>
</g>
<g id="glyph-1-9">
<path d="M 1.265625 0 L 1.265625 -14.234375 L 4.140625 -14.234375 L 4.140625 -8.625 L 7.6875 -8.625 L 8.90625 -9.828125 L 8.90625 -14.234375 L 11.78125 -14.234375 L 11.78125 -8.625 L 10.34375 -7.203125 L 11.78125 -5.75 L 11.78125 0 L 8.90625 0 L 8.90625 -4.546875 L 7.6875 -5.75 L 4.140625 -5.75 L 4.140625 0 Z M 2.71875 -1.4375 L 2.71875 -7.28125 L 8.46875 -7.28125 L 10.359375 -5.3125 L 10.359375 -1.4375 L 10.359375 -5.3125 L 8.46875 -7.28125 L 10.359375 -9.171875 L 10.359375 -12.796875 L 10.359375 -9.171875 L 8.46875 -7.28125 L 2.71875 -7.28125 L 2.71875 -12.796875 Z M 2.71875 -1.4375 "></path>
</g>
<g id="glyph-1-10">
<path d="M 4.296875 0 L 4.296875 -11.359375 L 0.765625 -11.359375 L 0.765625 -14.234375 L 10.6875 -14.234375 L 10.6875 -11.359375 L 7.15625 -11.359375 L 7.15625 0 Z M 5.734375 -1.4375 L 5.71875 -1.4375 L 5.71875 -12.796875 L 9.34375 -12.796875 L 2.09375 -12.796875 L 5.734375 -12.796875 Z M 5.734375 -1.4375 "></path>
</g>
</g>
</defs>
<path fill-rule="nonzero" fill="rgb(95.69%, 94.51%, 91.76%)" fill-opacity="1" d="M 471.851562 234.65625 C 456.851562 249.65625 437.039062 258.09375 415.898438 258.535156 L 415.898438 247.253906 L 416.25 247.253906 L 417.3125 247.207031 C 417.753906 247.191406 418.195312 247.164062 418.628906 247.136719 C 418.949219 247.117188 419.261719 247.09375 419.582031 247.074219 C 420.046875 247.039062 420.503906 247 420.964844 246.953125 C 421.257812 246.929688 421.542969 246.898438 421.832031 246.867188 C 421.886719 246.859375 421.9375 246.855469 421.984375 246.847656 C 422.160156 246.832031 422.335938 246.808594 422.507812 246.789062 C 422.789062 246.757812 423.0625 246.722656 423.339844 246.6875 C 423.71875 246.636719 424.089844 246.585938 424.460938 246.53125 C 424.835938 246.472656 425.210938 246.417969 425.585938 246.355469 C 426 246.289062 426.414062 246.214844 426.824219 246.140625 C 427.207031 246.070312 427.589844 245.996094 427.972656 245.921875 C 428.355469 245.84375 428.742188 245.761719 429.128906 245.679688 C 429.828125 245.53125 430.515625 245.363281 431.207031 245.191406 C 431.375 245.152344 431.542969 245.109375 431.710938 245.0625 C 432.003906 244.988281 432.300781 244.910156 432.59375 244.832031 C 432.964844 244.730469 433.332031 244.628906 433.695312 244.519531 C 434.070312 244.414062 434.4375 244.300781 434.800781 244.191406 C 434.808594 244.1875 434.816406 244.1875 434.824219 244.183594 C 435.199219 244.066406 435.570312 243.949219 435.945312 243.828125 C 436.292969 243.710938 436.640625 243.597656 436.984375 243.480469 C 437.007812 243.472656 437.03125 243.464844 437.058594 243.453125 C 437.429688 243.324219 437.796875 243.191406 438.160156 243.0625 C 438.53125 242.925781 438.894531 242.789062 439.261719 242.648438 C 439.625 242.511719 439.984375 242.367188 440.351562 242.21875 C 440.417969 242.195312 440.488281 242.167969 440.554688 242.136719 C 440.847656 242.019531 441.136719 241.898438 441.429688 241.773438 C 441.785156 241.625 442.140625 241.472656 442.492188 241.316406 C 442.867188 241.152344 443.242188 240.980469 443.617188 240.808594 C 443.9375 240.65625 444.261719 240.507812 444.578125 240.351562 C 445.3125 240 446.042969 239.628906 446.765625 239.25 C 447.089844 239.078125 447.414062 238.90625 447.742188 238.730469 C 448.011719 238.578125 448.289062 238.429688 448.5625 238.273438 C 449.304688 237.855469 450.039062 237.421875 450.765625 236.976562 C 451.089844 236.78125 451.40625 236.582031 451.726562 236.382812 C 452.039062 236.183594 452.34375 235.984375 452.652344 235.78125 C 452.832031 235.667969 453.011719 235.546875 453.1875 235.429688 C 453.476562 235.234375 453.761719 235.042969 454.042969 234.847656 C 454.414062 234.585938 454.789062 234.324219 455.15625 234.0625 C 455.363281 233.914062 455.566406 233.765625 455.773438 233.613281 C 455.976562 233.464844 456.179688 233.3125 456.378906 233.160156 C 456.511719 233.0625 456.644531 232.960938 456.773438 232.863281 C 456.945312 232.734375 457.117188 232.601562 457.289062 232.464844 C 457.683594 232.15625 458.074219 231.847656 458.464844 231.53125 C 458.722656 231.324219 458.976562 231.113281 459.230469 230.902344 C 459.464844 230.703125 459.703125 230.5 459.9375 230.300781 C 460.515625 229.804688 461.082031 229.300781 461.644531 228.785156 L 461.71875 228.816406 L 462.578125 228 C 469.445312 221.488281 474.84375 213.8125 478.632812 205.195312 C 482.316406 196.808594 484.296875 187.917969 484.519531 178.742188 L 495.730469 178.742188 C 495.28125 199.867188 486.84375 219.664062 471.851562 234.65625 M 332.5625 178.738281 L 343.71875 178.738281 L 343.828125 180.90625 L 343.882812 181.714844 C 343.917969 182.226562 343.957031 182.738281 344.003906 183.25 C 344.023438 183.46875 344.042969 183.6875 344.066406 183.90625 C 344.085938 184.148438 344.113281 184.394531 344.140625 184.636719 C 344.199219 185.195312 344.269531 185.757812 344.34375 186.316406 C 344.375 186.554688 344.410156 186.800781 344.445312 187.039062 C 344.625 188.300781 344.84375 189.550781 345.09375 190.796875 C 345.152344 191.09375 345.214844 191.394531 345.28125 191.691406 C 345.328125 191.917969 345.382812 192.148438 345.429688 192.375 C 345.464844 192.527344 345.5 192.671875 345.535156 192.824219 C 345.585938 193.042969 345.636719 193.257812 345.6875 193.476562 C 345.761719 193.769531 345.832031 194.066406 345.910156 194.363281 C 345.984375 194.65625 346.0625 194.953125 346.144531 195.246094 C 346.347656 196 346.5625 196.746094 346.792969 197.496094 C 346.890625 197.820312 346.996094 198.144531 347.101562 198.460938 C 347.175781 198.691406 347.253906 198.921875 347.328125 199.152344 C 347.414062 199.417969 347.503906 199.683594 347.597656 199.949219 C 347.632812 200.058594 347.671875 200.164062 347.710938 200.273438 C 347.757812 200.398438 347.804688 200.53125 347.851562 200.664062 C 347.851562 200.671875 347.855469 200.679688 347.859375 200.691406 C 347.890625 200.777344 347.921875 200.867188 347.957031 200.957031 C 348.015625 201.117188 348.070312 201.269531 348.132812 201.425781 C 348.226562 201.671875 348.316406 201.921875 348.410156 202.164062 C 348.488281 202.367188 348.566406 202.566406 348.648438 202.769531 C 348.667969 202.828125 348.695312 202.886719 348.714844 202.941406 C 348.804688 203.171875 348.898438 203.402344 348.992188 203.625 C 349 203.644531 349.007812 203.664062 349.015625 203.679688 C 349.109375 203.90625 349.203125 204.128906 349.296875 204.355469 C 349.417969 204.636719 349.539062 204.914062 349.660156 205.195312 C 349.777344 205.460938 349.898438 205.730469 350.019531 206 L 350.308594 206.632812 L 350.363281 206.75 C 350.585938 207.21875 350.8125 207.683594 351.039062 208.148438 C 351.15625 208.375 351.265625 208.597656 351.382812 208.824219 C 351.441406 208.9375 351.496094 209.050781 351.554688 209.164062 C 351.652344 209.347656 351.746094 209.523438 351.839844 209.707031 C 352.050781 210.097656 352.257812 210.484375 352.472656 210.867188 C 352.507812 210.933594 352.546875 211.007812 352.582031 211.074219 C 352.667969 211.226562 352.757812 211.386719 352.847656 211.539062 C 352.90625 211.648438 352.972656 211.753906 353.03125 211.863281 C 353.042969 211.882812 353.050781 211.898438 353.066406 211.917969 C 353.070312 211.925781 353.070312 211.9375 353.078125 211.941406 C 353.117188 212.015625 353.160156 212.085938 353.203125 212.160156 C 353.253906 212.246094 353.304688 212.332031 353.359375 212.417969 C 353.386719 212.46875 353.414062 212.519531 353.449219 212.570312 C 353.449219 212.574219 353.453125 212.582031 353.457031 212.582031 C 353.488281 212.640625 353.515625 212.699219 353.550781 212.753906 C 353.582031 212.796875 353.605469 212.84375 353.632812 212.890625 C 353.792969 213.164062 353.953125 213.433594 354.125 213.703125 C 354.335938 214.042969 354.550781 214.386719 354.769531 214.722656 C 354.804688 214.777344 354.835938 214.828125 354.871094 214.882812 C 354.980469 215.050781 355.085938 215.214844 355.199219 215.382812 C 355.351562 215.621094 355.503906 215.855469 355.664062 216.09375 C 355.722656 216.179688 355.78125 216.265625 355.835938 216.347656 C 355.898438 216.441406 355.960938 216.53125 356.023438 216.617188 C 356.0625 216.675781 356.101562 216.734375 356.136719 216.785156 C 356.191406 216.863281 356.242188 216.9375 356.292969 217.011719 C 356.3125 217.042969 356.339844 217.074219 356.359375 217.105469 C 356.46875 217.265625 356.578125 217.421875 356.6875 217.582031 C 356.722656 217.628906 356.757812 217.675781 356.792969 217.71875 C 356.886719 217.855469 356.980469 217.984375 357.078125 218.117188 C 357.089844 218.132812 357.101562 218.148438 357.109375 218.164062 C 357.109375 218.164062 357.113281 218.164062 357.113281 218.167969 C 357.265625 218.375 357.417969 218.582031 357.574219 218.789062 C 357.617188 218.855469 357.667969 218.921875 357.71875 218.988281 C 357.808594 219.109375 357.894531 219.226562 357.984375 219.34375 C 358.121094 219.535156 358.265625 219.722656 358.417969 219.914062 C 358.425781 219.921875 358.433594 219.933594 358.445312 219.949219 C 358.535156 220.0625 358.625 220.179688 358.714844 220.296875 C 358.761719 220.355469 358.804688 220.414062 358.851562 220.476562 C 359.09375 220.777344 359.332031 221.078125 359.578125 221.378906 C 359.621094 221.4375 359.667969 221.496094 359.714844 221.546875 C 359.738281 221.582031 359.765625 221.609375 359.792969 221.640625 C 359.890625 221.757812 359.988281 221.878906 360.085938 221.992188 C 360.222656 222.15625 360.359375 222.324219 360.496094 222.488281 C 360.566406 222.570312 360.632812 222.648438 360.703125 222.726562 C 360.855469 222.90625 361.011719 223.089844 361.175781 223.269531 L 361.378906 223.503906 C 361.441406 223.578125 361.507812 223.652344 361.574219 223.722656 C 361.679688 223.839844 361.78125 223.960938 361.894531 224.082031 C 361.980469 224.179688 362.070312 224.277344 362.160156 224.378906 C 362.273438 224.503906 362.386719 224.625 362.503906 224.75 C 362.539062 224.785156 362.574219 224.820312 362.609375 224.855469 C 362.695312 224.953125 362.785156 225.046875 362.871094 225.140625 C 362.957031 225.230469 363.042969 225.320312 363.128906 225.410156 C 363.34375 225.640625 363.558594 225.867188 363.78125 226.089844 C 363.867188 226.179688 363.957031 226.265625 364.042969 226.355469 C 364.125 226.4375 364.203125 226.519531 364.285156 226.601562 C 364.445312 226.761719 364.605469 226.925781 364.769531 227.082031 C 364.917969 227.230469 365.070312 227.378906 365.222656 227.523438 C 365.386719 227.6875 365.554688 227.84375 365.71875 228 L 366.578125 228.816406 L 366.609375 228.804688 C 367.359375 229.488281 368.121094 230.15625 368.898438 230.808594 C 369.09375 230.972656 369.289062 231.136719 369.484375 231.296875 C 369.679688 231.457031 369.878906 231.617188 370.074219 231.773438 C 370.269531 231.9375 370.472656 232.09375 370.667969 232.246094 C 370.8125 232.363281 370.960938 232.476562 371.109375 232.589844 C 371.5625 232.945312 372.023438 233.289062 372.484375 233.628906 C 372.679688 233.769531 372.871094 233.910156 373.070312 234.054688 C 373.488281 234.359375 373.917969 234.65625 374.34375 234.949219 C 374.527344 235.078125 374.710938 235.203125 374.894531 235.328125 C 374.9375 235.355469 374.980469 235.386719 375.023438 235.414062 C 375.21875 235.542969 375.410156 235.671875 375.605469 235.796875 C 376.027344 236.074219 376.457031 236.347656 376.886719 236.617188 C 377.566406 237.039062 378.253906 237.457031 378.949219 237.855469 C 379.128906 237.964844 379.308594 238.066406 379.488281 238.167969 C 380.457031 238.71875 381.4375 239.238281 382.429688 239.746094 C 382.699219 239.882812 382.964844 240.011719 383.234375 240.144531 C 383.617188 240.332031 384.003906 240.515625 384.390625 240.699219 C 384.71875 240.855469 385.046875 241.003906 385.378906 241.152344 C 385.722656 241.308594 386.070312 241.457031 386.417969 241.609375 C 386.746094 241.753906 387.082031 241.886719 387.410156 242.023438 C 387.777344 242.175781 388.148438 242.328125 388.523438 242.472656 C 388.839844 242.597656 389.160156 242.722656 389.484375 242.839844 C 390.25 243.128906 391.023438 243.402344 391.796875 243.660156 C 392.105469 243.765625 392.414062 243.867188 392.722656 243.964844 C 392.753906 243.976562 392.78125 243.984375 392.816406 243.996094 C 393.175781 244.109375 393.539062 244.222656 393.90625 244.332031 C 394.199219 244.421875 394.492188 244.503906 394.785156 244.589844 C 394.945312 244.632812 395.105469 244.679688 395.265625 244.722656 C 395.535156 244.800781 395.804688 244.875 396.074219 244.945312 C 396.085938 244.949219 396.105469 244.953125 396.121094 244.957031 C 396.484375 245.054688 396.847656 245.148438 397.210938 245.234375 C 397.609375 245.335938 398.007812 245.433594 398.410156 245.523438 C 398.734375 245.597656 399.0625 245.667969 399.386719 245.738281 C 399.40625 245.746094 399.425781 245.746094 399.445312 245.75 C 399.820312 245.832031 400.199219 245.90625 400.574219 245.980469 C 400.933594 246.050781 401.296875 246.121094 401.65625 246.183594 C 401.671875 246.1875 401.6875 246.191406 401.703125 246.191406 C 402.082031 246.257812 402.460938 246.324219 402.839844 246.382812 C 403.21875 246.445312 403.597656 246.507812 403.980469 246.558594 C 404.320312 246.609375 404.660156 246.65625 404.996094 246.699219 C 406.1875 246.851562 407.382812 246.976562 408.589844 247.066406 C 408.976562 247.09375 409.363281 247.125 409.753906 247.148438 C 410.140625 247.171875 410.527344 247.191406 410.917969 247.207031 L 411.980469 247.253906 L 412.320312 247.253906 L 412.320312 258.535156 C 368.757812 257.574219 333.503906 222.308594 332.5625 178.738281 M 412.359375 95.367188 L 412.359375 106.515625 L 411.804688 106.523438 L 410.089844 106.597656 L 409.285156 106.648438 C 384.976562 108.273438 363.21875 122.554688 351.84375 144.058594 C 347.25 152.75 344.542969 162.261719 343.882812 172.054688 L 343.828125 172.859375 C 343.789062 173.445312 343.726562 175.160156 343.726562 175.160156 L 332.5625 175.160156 C 333.503906 131.582031 368.777344 96.308594 412.359375 95.367188 M 401.214844 175.164062 C 400.890625 164.648438 397.671875 154.585938 391.839844 145.859375 C 397.664062 141.667969 404.71875 139.078125 412.359375 138.734375 L 412.359375 175.164062 Z M 375.960938 175.164062 C 376.441406 164.367188 381.398438 154.738281 389.027344 148.089844 C 394.363281 156.164062 397.3125 165.457031 397.636719 175.164062 Z M 397.398438 182.316406 C 396.550781 190.691406 393.722656 198.671875 389.082031 205.730469 C 381.457031 199.105469 376.484375 189.507812 375.96875 178.742188 L 412.359375 178.742188 L 412.359375 215.035156 C 404.746094 214.691406 397.714844 212.117188 391.902344 207.953125 C 397.03125 200.242188 400.125 191.5 400.988281 182.316406 Z M 432.089844 189.339844 L 450.234375 189.339844 C 448.03125 195.726562 444.183594 201.351562 439.1875 205.699219 C 435.882812 200.671875 433.5 195.183594 432.089844 189.339844 M 436.371094 207.925781 C 430.5625 212.097656 423.542969 214.675781 415.9375 215.035156 L 415.9375 189.339844 L 428.421875 189.339844 C 429.917969 196 432.589844 202.238281 436.371094 207.925781 M 415.9375 165.871094 L 415.9375 138.734375 C 423.566406 139.09375 430.609375 141.6875 436.425781 145.882812 C 432.402344 151.933594 429.582031 158.761719 428.148438 165.871094 Z M 414.121094 110.078125 C 431.015625 110.078125 446.445312 116.347656 458.210938 126.691406 C 464.222656 131.976562 469.277344 138.324219 473.078125 145.441406 L 473.058594 145.453125 L 450.730469 156.742188 C 448.304688 152.339844 445.113281 148.425781 441.328125 145.171875 C 440.421875 144.394531 439.484375 143.65625 438.515625 142.960938 C 432.113281 138.34375 424.347656 135.5 415.9375 135.144531 C 415.332031 135.113281 414.726562 135.101562 414.117188 135.101562 C 413.527344 135.101562 412.941406 135.109375 412.359375 135.140625 C 403.941406 135.484375 396.167969 138.324219 389.753906 142.933594 C 388.785156 143.628906 387.84375 144.367188 386.941406 145.144531 C 378.40625 152.460938 372.855469 163.160156 372.375 175.164062 L 347.332031 175.164062 C 347.820312 155.84375 356.511719 138.566406 370.046875 126.675781 C 381.808594 116.339844 397.230469 110.078125 414.121094 110.078125 M 480.902344 178.742188 C 480.410156 196.667969 472.859375 212.835938 460.925781 224.550781 C 460.015625 225.449219 459.074219 226.320312 458.109375 227.160156 C 446.359375 237.457031 430.96875 243.691406 414.121094 243.691406 C 397.277344 243.691406 381.898438 237.464844 370.144531 227.179688 C 369.179688 226.335938 368.242188 225.46875 367.328125 224.570312 C 364.667969 221.964844 362.226562 219.128906 360.03125 216.105469 C 359.628906 215.558594 359.238281 215 358.855469 214.441406 C 358.28125 213.597656 357.726562 212.738281 357.191406 211.867188 C 357 211.558594 356.808594 211.246094 356.625 210.933594 C 356.625 210.925781 356.621094 210.921875 356.613281 210.921875 C 356.195312 210.207031 355.789062 209.488281 355.390625 208.761719 C 355.386719 208.753906 355.378906 208.742188 355.371094 208.726562 C 355.242188 208.492188 355.113281 208.253906 354.992188 208.015625 C 354.503906 207.09375 354.039062 206.15625 353.597656 205.207031 C 353.484375 204.96875 353.371094 204.726562 353.261719 204.480469 C 353.15625 204.25 353.050781 204.011719 352.949219 203.78125 C 352.847656 203.542969 352.746094 203.308594 352.644531 203.070312 C 352.542969 202.828125 352.4375 202.585938 352.339844 202.34375 C 352.328125 202.3125 352.3125 202.285156 352.304688 202.253906 C 352.199219 202 352.09375 201.746094 351.992188 201.488281 C 351.882812 201.207031 351.773438 200.929688 351.667969 200.648438 C 351.625 200.550781 351.585938 200.445312 351.550781 200.34375 C 351.515625 200.242188 351.476562 200.144531 351.441406 200.039062 C 351.308594 199.6875 351.179688 199.332031 351.054688 198.980469 C 350.964844 198.726562 350.878906 198.476562 350.789062 198.222656 C 350.691406 197.914062 350.589844 197.609375 350.488281 197.300781 C 350.085938 196.050781 349.71875 194.78125 349.390625 193.5 C 349.332031 193.261719 349.269531 193.019531 349.210938 192.777344 C 349.15625 192.546875 349.101562 192.320312 349.046875 192.089844 C 348.972656 191.769531 348.902344 191.449219 348.832031 191.128906 C 348.777344 190.867188 348.71875 190.605469 348.667969 190.347656 C 348.617188 190.121094 348.574219 189.886719 348.53125 189.65625 C 348.425781 189.121094 348.328125 188.585938 348.238281 188.046875 C 348.195312 187.792969 348.15625 187.542969 348.117188 187.292969 C 347.679688 184.476562 347.421875 181.625 347.34375 178.742188 L 372.378906 178.742188 C 372.898438 190.71875 378.464844 201.386719 387.003906 208.675781 C 387.910156 209.449219 388.851562 210.183594 389.824219 210.878906 C 396.222656 215.464844 403.972656 218.28125 412.359375 218.625 C 412.941406 218.652344 413.527344 218.664062 414.117188 218.664062 C 414.726562 218.664062 415.332031 218.648438 415.9375 218.621094 C 424.3125 218.269531 432.054688 215.441406 438.449219 210.851562 C 439.421875 210.160156 440.363281 209.417969 441.265625 208.640625 C 447.167969 203.59375 451.644531 196.933594 454.011719 189.339844 C 454.375 188.167969 454.691406 186.976562 454.953125 185.761719 L 415.9375 185.761719 L 415.9375 169.449219 L 480.96875 169.449219 Z M 495.730469 175.164062 L 484.546875 175.164062 L 484.546875 165.871094 L 431.800781 165.871094 C 433.164062 159.566406 435.695312 153.519531 439.246094 148.121094 C 442.5625 151.019531 445.371094 154.484375 447.527344 158.363281 C 448.105469 159.398438 448.636719 160.46875 449.113281 161.566406 L 452.320312 159.945312 L 474.671875 148.640625 L 474.679688 148.640625 L 477.863281 147.023438 L 477.871094 147.023438 C 477.601562 146.453125 477.328125 145.882812 477.046875 145.324219 C 476.929688 145.101562 476.820312 144.882812 476.707031 144.664062 C 476.683594 144.617188 476.660156 144.574219 476.636719 144.527344 C 476.515625 144.296875 476.390625 144.058594 476.265625 143.828125 C 476.078125 143.476562 475.890625 143.125 475.691406 142.78125 C 475.640625 142.679688 475.582031 142.574219 475.519531 142.472656 C 475.382812 142.222656 475.238281 141.972656 475.09375 141.722656 C 475.039062 141.621094 474.980469 141.523438 474.921875 141.425781 C 474.757812 141.148438 474.597656 140.871094 474.433594 140.601562 C 474.375 140.507812 474.320312 140.414062 474.261719 140.324219 C 474.078125 140.023438 473.894531 139.722656 473.707031 139.425781 C 473.683594 139.382812 473.65625 139.339844 473.628906 139.300781 C 473.191406 138.609375 472.742188 137.921875 472.277344 137.246094 C 472.253906 137.214844 472.234375 137.183594 472.210938 137.152344 C 471.972656 136.796875 471.726562 136.449219 471.476562 136.097656 C 471.460938 136.074219 471.449219 136.058594 471.4375 136.039062 C 471.234375 135.757812 471.03125 135.476562 470.828125 135.203125 C 470.722656 135.058594 470.613281 134.910156 470.5 134.761719 C 470.347656 134.558594 470.199219 134.355469 470.039062 134.15625 C 469.980469 134.074219 469.917969 133.992188 469.855469 133.914062 C 469.613281 133.597656 469.363281 133.277344 469.109375 132.96875 C 468.84375 132.628906 468.566406 132.292969 468.289062 131.953125 C 468.039062 131.652344 467.78125 131.347656 467.523438 131.050781 C 467.25 130.730469 466.980469 130.417969 466.695312 130.105469 C 466.523438 129.910156 466.351562 129.71875 466.175781 129.53125 C 466.003906 129.332031 465.824219 129.140625 465.640625 128.945312 C 465.390625 128.671875 465.132812 128.398438 464.871094 128.132812 C 464.820312 128.078125 464.773438 128.027344 464.71875 127.972656 C 464.507812 127.75 464.292969 127.535156 464.074219 127.316406 C 463.953125 127.191406 463.832031 127.070312 463.707031 126.945312 C 463.4375 126.679688 463.167969 126.414062 462.894531 126.152344 C 462.6875 125.949219 462.476562 125.753906 462.265625 125.554688 C 461.433594 124.773438 460.578125 124.007812 459.707031 123.269531 C 459.523438 123.109375 459.339844 122.953125 459.15625 122.800781 C 459.082031 122.738281 459.003906 122.671875 458.921875 122.609375 C 458.660156 122.390625 458.390625 122.171875 458.121094 121.957031 C 457.707031 121.621094 457.289062 121.296875 456.867188 120.972656 C 456.558594 120.734375 456.246094 120.5 455.9375 120.273438 C 455.582031 120.007812 455.226562 119.75 454.867188 119.496094 C 454.539062 119.261719 454.207031 119.03125 453.875 118.800781 C 453.527344 118.558594 453.167969 118.320312 452.808594 118.085938 C 452.574219 117.929688 452.339844 117.773438 452.101562 117.628906 C 452.039062 117.582031 451.972656 117.539062 451.90625 117.5 C 451.644531 117.332031 451.378906 117.164062 451.113281 117.003906 C 451 116.929688 450.882812 116.855469 450.765625 116.789062 C 450.585938 116.675781 450.40625 116.566406 450.226562 116.460938 C 450.023438 116.335938 449.816406 116.214844 449.609375 116.097656 C 449.433594 115.988281 449.257812 115.886719 449.078125 115.785156 C 448.375 115.382812 447.664062 114.988281 446.941406 114.605469 C 438.28125 110.027344 428.800781 107.324219 419.03125 106.65625 L 418.125 106.59375 L 416.625 106.566406 C 416.578125 106.566406 416.390625 106.511719 416.433594 106.484375 L 415.933594 106.488281 L 415.933594 95.367188 C 459.515625 96.308594 494.789062 131.582031 495.730469 175.164062 M 414.148438 91.765625 C 367.175781 91.765625 328.964844 129.980469 328.964844 176.949219 C 328.964844 223.921875 367.175781 262.132812 414.148438 262.132812 C 436.898438 262.132812 458.292969 253.273438 474.378906 237.183594 C 490.46875 221.097656 499.328125 199.703125 499.328125 176.949219 C 499.328125 129.980469 461.117188 91.765625 414.148438 91.765625 "></path>
<path fill-rule="nonzero" fill="rgb(100%, 16.08%, 16.08%)" fill-opacity="1" d="M 480.902344 178.742188 C 480.410156 196.667969 472.859375 212.835938 460.925781 224.550781 C 460.015625 225.449219 459.074219 226.320312 458.109375 227.160156 C 446.359375 237.457031 430.96875 243.691406 414.121094 243.691406 C 397.277344 243.691406 381.898438 237.464844 370.144531 227.179688 C 369.179688 226.335938 368.242188 225.46875 367.328125 224.570312 C 364.667969 221.964844 362.226562 219.128906 360.03125 216.105469 C 359.628906 215.558594 359.238281 215.003906 358.855469 214.441406 C 358.28125 213.597656 357.726562 212.738281 357.191406 211.867188 C 357 211.558594 356.808594 211.246094 356.625 210.933594 C 356.625 210.925781 356.621094 210.925781 356.613281 210.921875 C 356.195312 210.207031 355.789062 209.488281 355.390625 208.761719 C 355.386719 208.753906 355.378906 208.742188 355.371094 208.726562 C 355.242188 208.492188 355.113281 208.253906 354.992188 208.015625 C 354.503906 207.09375 354.039062 206.15625 353.597656 205.207031 C 353.484375 204.96875 353.371094 204.726562 353.261719 204.480469 C 353.15625 204.25 353.050781 204.011719 352.949219 203.78125 C 352.847656 203.542969 352.746094 203.308594 352.644531 203.070312 C 352.542969 202.828125 352.4375 202.585938 352.339844 202.34375 C 352.328125 202.3125 352.3125 202.285156 352.300781 202.253906 C 352.199219 202 352.097656 201.746094 351.992188 201.488281 C 351.882812 201.207031 351.773438 200.929688 351.667969 200.652344 C 351.625 200.550781 351.585938 200.445312 351.550781 200.34375 C 351.515625 200.242188 351.476562 200.140625 351.441406 200.039062 C 351.308594 199.6875 351.179688 199.335938 351.054688 198.980469 C 350.964844 198.726562 350.878906 198.476562 350.789062 198.222656 C 350.691406 197.914062 350.589844 197.609375 350.488281 197.300781 C 350.085938 196.050781 349.722656 194.78125 349.390625 193.5 C 349.332031 193.261719 349.269531 193.019531 349.210938 192.777344 C 349.15625 192.546875 349.101562 192.320312 349.046875 192.089844 C 348.972656 191.769531 348.902344 191.449219 348.832031 191.128906 C 348.777344 190.867188 348.71875 190.605469 348.667969 190.347656 C 348.617188 190.121094 348.570312 189.886719 348.527344 189.652344 C 348.425781 189.121094 348.328125 188.585938 348.238281 188.046875 C 348.195312 187.792969 348.15625 187.542969 348.117188 187.292969 C 347.679688 184.480469 347.421875 181.625 347.34375 178.742188 L 372.378906 178.742188 C 372.902344 190.71875 378.464844 201.386719 387.003906 208.675781 C 387.910156 209.449219 388.851562 210.183594 389.824219 210.878906 C 396.222656 215.464844 403.972656 218.28125 412.359375 218.625 C 412.941406 218.652344 413.527344 218.664062 414.117188 218.664062 C 414.726562 218.664062 415.332031 218.652344 415.9375 218.621094 C 424.3125 218.265625 432.054688 215.441406 438.449219 210.851562 C 439.421875 210.160156 440.363281 209.417969 441.265625 208.640625 C 447.167969 203.59375 451.644531 196.933594 454.011719 189.339844 C 454.375 188.167969 454.691406 186.976562 454.953125 185.761719 L 415.9375 185.761719 L 415.9375 169.449219 L 480.96875 169.449219 Z M 480.902344 178.742188 "></path>
<path fill-rule="nonzero" fill="rgb(100%, 16.08%, 16.08%)" fill-opacity="1" d="M 414.121094 110.078125 C 431.015625 110.078125 446.445312 116.347656 458.210938 126.691406 C 464.21875 131.976562 469.277344 138.320312 473.078125 145.441406 L 473.058594 145.453125 L 450.730469 156.742188 C 448.304688 152.339844 445.113281 148.425781 441.328125 145.171875 C 440.421875 144.398438 439.484375 143.65625 438.515625 142.960938 C 432.113281 138.34375 424.347656 135.5 415.9375 135.144531 C 415.332031 135.113281 414.726562 135.101562 414.117188 135.101562 C 413.523438 135.101562 412.941406 135.109375 412.359375 135.140625 C 403.941406 135.484375 396.167969 138.320312 389.757812 142.933594 C 388.785156 143.628906 387.84375 144.367188 386.941406 145.144531 C 378.40625 152.460938 372.855469 163.160156 372.375 175.164062 L 347.332031 175.164062 C 347.820312 155.84375 356.507812 138.566406 370.046875 126.675781 C 381.808594 116.339844 397.230469 110.078125 414.121094 110.078125 "></path>
<g fill="rgb(95.69%, 94.51%, 91.76%)" fill-opacity="1">
<use xlink:href="#glyph-0-0" x="165.941646" y="459.851509"></use>
<use xlink:href="#glyph-0-1" x="244.119506" y="459.851509"></use>
</g>
<g fill="rgb(95.69%, 94.51%, 91.76%)" fill-opacity="1">
<use xlink:href="#glyph-0-2" x="326.855841" y="459.851509"></use>
<use xlink:href="#glyph-0-3" x="416.42989" y="459.851509"></use>
</g>
<g fill="rgb(95.69%, 94.51%, 91.76%)" fill-opacity="1">
<use xlink:href="#glyph-0-4" x="496.886988" y="459.851509"></use>
<use xlink:href="#glyph-0-5" x="584.181799" y="459.851509"></use>
</g>
<g fill="rgb(95.69%, 94.51%, 91.76%)" fill-opacity="1">
<use xlink:href="#glyph-1-0" x="248.181522" y="312.443393"></use>
<use xlink:href="#glyph-1-1" x="301.64294" y="312.443393"></use>
<use xlink:href="#glyph-1-2" x="353.904577" y="312.443393"></use>
<use xlink:href="#glyph-1-3" x="407.874377" y="312.443393"></use>
<use xlink:href="#glyph-1-4" x="462.047529" y="312.443393"></use>
<use xlink:href="#glyph-1-5" x="515.7123" y="312.443393"></use>
<use xlink:href="#glyph-1-6" x="567.140191" y="312.443393"></use>
</g>
<g fill="rgb(95.69%, 94.51%, 91.76%)" fill-opacity="1">
<use xlink:href="#glyph-1-7" x="274.475023" y="497.04695"></use>
<use xlink:href="#glyph-1-6" x="328.078788" y="497.04695"></use>
<use xlink:href="#glyph-1-8" x="381.845235" y="497.04695"></use>
<use xlink:href="#glyph-1-9" x="435.754029" y="497.04695"></use>
<use xlink:href="#glyph-1-1" x="489.622152" y="497.04695"></use>
<use xlink:href="#glyph-1-10" x="541.883789" y="497.04695"></use>
</g>
<path fill="none" stroke-width="2" stroke-linecap="butt" stroke-linejoin="miter" stroke="rgb(95.69%, 94.51%, 91.76%)" stroke-opacity="1" stroke-miterlimit="10" d="M 0.0016905 -0.000653892 L -50.739636 -0.000653892 " transform="matrix(0.998785, 0, 0, -0.998785, 250.35378, 490.175128)"></path>
<path fill="none" stroke-width="2" stroke-linecap="butt" stroke-linejoin="miter" stroke="rgb(95.69%, 94.51%, 91.76%)" stroke-opacity="1" stroke-miterlimit="10" d="M 0.000267251 -0.000653892 L -50.737148 -0.000653892 " transform="matrix(0.998785, 0, 0, -0.998785, 628.616921, 490.175128)"></path>
</svg>
